<svg id="Layer_1" data-name="Layer 1" xmlns="http://www.w3.org/2000/svg" viewBox="0 0 264.1 65.03"><defs><style>.cls-1{fill:#d80000;}.cls-2{fill:#fff;}</style></defs><path class="cls-1" d="M225.38,76.71a4.7,4.7,0,1,0,4.11,1.76A4.72,4.72,0,0,0,225.38,76.71Z" transform="translate(-8.89 -21.08)"/><path class="cls-1" d="M250.32,81A4.71,4.71,0,1,0,246.08,86,4.73,4.73,0,0,0,250.32,81Z" transform="translate(-8.89 -21.08)"/><path class="cls-1" d="M271.89,21.09c-4,0-8,0-12,0a1.06,1.06,0,0,0-1.07.94c-.44,2.31-.84,4.64-1.29,7-14.42,0-28.83,0-43.25.1a.88.88,0,0,0-.94.64c-.08.57,0,1.15,0,1.72a2,2,0,0,0,.23,1.27c.44.42,1.09.23,1.63.27,13.88,0,27.77-.08,41.65-.07-.56,3-4.29,22.88-6.44,34.37-11.91-.07-26.54-.15-29-.15a.88.88,0,0,0-.92.87c0,.73,0,1.46,0,2.18a.85.85,0,0,0,.89.85c4.45,0,8.91,0,13.37,0l14.9.09,3.89,0c.22-1.17.46-2.45.71-3.82,2.6-13.91,7-37.12,7.89-42.29,3.32-.08,6.65,0,10-.05a.86.86,0,0,0,.85-.94,20.09,20.09,0,0,0,0-2.33A.91.91,0,0,0,271.89,21.09Z" transform="translate(-8.89 -21.08)"/><path class="cls-1" d="M112.84,29.58a20.87,20.87,0,0,1,4.47.15,3.33,3.33,0,0,1,2.22,3c.07,2.62,0,5.25,0,7.88a9,9,0,0,1,4.77-3.52,9.69,9.69,0,0,1,8.43,1.58,13.77,13.77,0,0,1,4.72,9.62c.39,4.18-.2,8.7-2.82,12.11-1.51,2-4,2.93-6.42,3.35A16.36,16.36,0,0,1,116.13,61c-2.64-2.11-3.29-5.73-3.28-8.92C112.84,44.54,112.85,37.06,112.84,29.58Zm11.09,13.16c-2.72.47-4.09,3.32-4.3,5.83s-.16,5.38,1.3,7.59a5.25,5.25,0,0,0,8.33.06,10.49,10.49,0,0,0,1.54-6.09c0-2.27-.5-4.75-2.26-6.32A5.17,5.17,0,0,0,123.93,42.74Z" transform="translate(-8.89 -21.08)"/><path class="cls-1" d="M144.05,38.06c2.77-1.58,6.1-1.6,9.19-1.31,2.44.26,5,1,6.73,2.88a6.68,6.68,0,0,1,1.55,4.77c0,3.17,0,6.35,0,9.52A9.75,9.75,0,0,1,159,60.6c-2.22,2.48-5.72,3.16-8.9,3.26a11.24,11.24,0,0,1-8.2-2c-1.79-1.41-2.4-3.81-2.41-6s.41-4.34,2-5.76c2.12-1.83,4.95-2.52,7.67-2.85,1.75-.31,3.65-.37,5.16-1.41a1.85,1.85,0,0,0-.49-3.21c-2.34-.79-5.71-1.08-7.21,1.31-2.17,0-4.34,0-6.51,0A8.08,8.08,0,0,1,144.05,38.06Zm7,13.5c-1.48.34-3.09.55-4.3,1.54-1.46,1.52-1.12,4.7,1.1,5.3s5.11-.11,6.43-2.21c1.15-1.76.9-3.95.89-5.94A22,22,0,0,1,151,51.56Z" transform="translate(-8.89 -21.08)"/><path class="cls-1" d="M192.45,37.7c2.69-1.23,5.75-1.22,8.63-.94,2.51.27,5.19,1,6.86,3a6.78,6.78,0,0,1,1.43,4.6c0,3.18,0,6.35,0,9.53a9.71,9.71,0,0,1-2.51,6.66c-2.39,2.64-6.17,3.24-9.56,3.31a10.61,10.61,0,0,1-8.11-2.47c-1.81-1.77-2.13-4.49-1.94-6.89a6.27,6.27,0,0,1,2.58-5,15.93,15.93,0,0,1,7.53-2.43c1.64-.29,3.43-.36,4.82-1.38a1.83,1.83,0,0,0-.27-3.06,8.71,8.71,0,0,0-4.92-.52,3.61,3.61,0,0,0-2.57,1.7c-2.18,0-4.36,0-6.55,0A8,8,0,0,1,192.45,37.7Zm3.07,14.75c-2.12.7-2.56,3.76-1.12,5.29a4.67,4.67,0,0,0,3.85.76,5.28,5.28,0,0,0,4-2.76c.89-1.69.6-3.67.64-5.5C200.59,51.4,197.93,51.53,195.52,52.45Z" transform="translate(-8.89 -21.08)"/><path class="cls-1" d="M163.4,36.61c7.44,0,14.87,0,22.3,0,.07,1.84.09,3.68,0,5.52,0,.43-.37.7-.6,1q-6.91,7.38-13.81,14.79c5,0,9.94,0,14.91,0,0,2,0,4,0,6-7.88,0-15.76,0-23.64,0,0-1.66-.1-3.32,0-5,0-.84.84-1.32,1.31-1.92,4.42-4.9,8.89-9.77,13.26-14.71-3.44-.05-6.87,0-10.31,0a3.4,3.4,0,0,1-3.39-2.75A21.46,21.46,0,0,1,163.4,36.61Z" transform="translate(-8.89 -21.08)"/><path class="cls-1" d="M215.14,40.88c3-2.56,7-3.2,10.83-3.13,0,2.32,0,4.65,0,7-2.09,0-4.46-.27-6.2,1.13-1.57,1.3-1.7,3.5-1.67,5.38,0,4.22,0,8.44,0,12.66-2.29.08-4.57,0-6.85,0q-.09-6.66,0-13.33C211.27,47,212.39,43.28,215.14,40.88Z" transform="translate(-8.89 -21.08)"/><path class="cls-1" d="M240.47,63.6a10.37,10.37,0,0,0,6.18-3,9.7,9.7,0,0,0,2.5-6.66c.08-3.18,0-6.35,0-9.53a6.73,6.73,0,0,0-1.43-4.6c-1.66-2-4.35-2.76-6.85-3-2.89-.28-5.94-.29-8.63.94a8,8,0,0,0-4.62,6.21c2.18,0,4.37,0,6.55,0a3.57,3.57,0,0,1,2.56-1.7,8.71,8.71,0,0,1,4.92.52,1.82,1.82,0,0,1,.27,3.06c-1.39,1-3.18,1.09-4.81,1.38a16,16,0,0,0-7.54,2.43,6.3,6.3,0,0,0-2.58,5c-.19,2.4.13,5.12,1.94,6.89a9.42,9.42,0,0,0,4.95,2.33A33.49,33.49,0,0,0,240.47,63.6Zm-5.12-11.15c2.4-.92,5.07-1.05,7.4-2.21,0,1.83.26,3.81-.64,5.5a5.25,5.25,0,0,1-4,2.76,4.65,4.65,0,0,1-3.84-.76C232.79,56.21,233.23,53.15,235.35,52.45Z" transform="translate(-8.89 -21.08)"/><rect class="cls-1" x="83.76" y="0.03" width="1.22" height="64.96"/><path class="cls-1" d="M73.67,53.72A32.39,32.39,0,1,1,41.28,21.33,32.4,32.4,0,0,1,73.67,53.72" transform="translate(-8.89 -21.08)"/><path class="cls-2" d="M41.54,71.78c-8.9,0-18.16-7.56-18.2-19.76,0-8.07,4.32-15.83,9.88-20.44a32.35,32.35,0,0,1,19.6-7.39,7.83,7.83,0,0,1,2.33.25A13.46,13.46,0,0,0,44.59,37.37a3.26,3.26,0,0,0,0,.53C54.49,40.3,59,46.26,59,54.49A17.33,17.33,0,0,1,41.54,71.78" transform="translate(-8.89 -21.08)"/></svg>